<?xml version="1.0" standalone="no"?>
<!DOCTYPE svg PUBLIC "-//W3C//DTD SVG 20010904//EN"
 "http://www.w3.org/TR/2001/REC-SVG-20010904/DTD/svg10.dtd">
<svg version="1.0" xmlns="http://www.w3.org/2000/svg"
 width="256.000000pt" height="256.000000pt" viewBox="0 0 256.000000 256.000000"
 preserveAspectRatio="xMidYMid meet">

<g transform="translate(0.000000,256.000000) scale(0.100000,-0.100000)"
fill="#000000" stroke="none">
<path d="M0 1924 c0 -547 2 -635 14 -631 8 3 219 124 468 269 249 144 482 277
518 295 90 46 168 63 280 63 112 0 190 -17 280 -63 36 -18 269 -151 518 -295
249 -145 460 -266 468 -269 12 -4 14 84 14 631 l0 636 -1280 0 -1280 0 0 -636z"/>
<path d="M1130 1219 l0 -561 -32 6 c-51 9 -130 52 -616 334 -249 145 -460 266
-468 269 -12 4 -14 -84 -14 -631 l0 -636 1280 0 1280 0 0 636 c0 538 -2 635
-14 631 -7 -3 -218 -124 -467 -269 -250 -144 -483 -277 -519 -295 -77 -39
-166 -63 -232 -63 l-48 0 0 70 0 70 38 0 c101 0 237 66 322 156 186 200 186
488 0 688 -105 112 -217 156 -397 156 l-113 0 0 -561z"/>
<path d="M380 1332 c-35 -36 -38 -60 -9 -96 27 -35 90 -37 113 -4 35 50 13
108 -46 123 -22 6 -33 1 -58 -23z"/>
<path d="M2076 1328 c-35 -50 -13 -108 46 -123 22 -6 33 -1 58 23 35 36 38 60
9 96 -27 35 -90 37 -113 4z"/>
</g>
</svg>
